<svg xmlns="http://www.w3.org/2000/svg" width="89" height="99.348" viewBox="0 0 89 99.348">
    <defs>
        <clipPath id="t0l6v6xhub">
            <ellipse cx="44.5" cy="45" rx="44.5" ry="45" transform="translate(.432 .107)" style="fill:url(#puw5sbeq1a)"/>
        </clipPath>
        <clipPath id="7d5hub7hlc">
            <path data-name="Clip 3" d="M0 0h39.968v56.235H0z" style="fill:none"/>
        </clipPath>
        <clipPath id="hsg6v7yitd">
            <path data-name="Clip 9" d="M0 74.081h97.715V0H0z" style="fill:none"/>
        </clipPath>
        <linearGradient id="puw5sbeq1a" x1=".5" y1=".648" x2=".5" y2="1" gradientUnits="objectBoundingBox">
            <stop offset="0" stop-color="#d7dce2"/>
            <stop offset="1" stop-color="#fff"/>
        </linearGradient>
    </defs>
    <g data-name="Group 8721">
        <g data-name="Group 40">
            <g data-name="Group 172" transform="translate(-.432 9.241)">
                <ellipse data-name="Mask" cx="44.5" cy="45" rx="44.5" ry="45" transform="translate(.432 .107)" style="fill:url(#puw5sbeq1a)"/>
                <g data-name="Group 172" style="clip-path:url(#t0l6v6xhub)">
                    <path data-name="Fill 1" d="M0 .135h97.715v-.05H0z" transform="translate(-2.617 67.941)" style="fill:#ececec"/>
                    <g data-name="Group 101">
                        <g data-name="Group 4">
                            <path data-name="Clip 3" d="M0 0h39.968v56.235H0z" style="fill:none" transform="translate(4.85 2.695)"/>
                            <g data-name="Group 4" style="clip-path:url(#7d5hub7hlc)" transform="translate(4.85 2.695)">
                                <path data-name="Fill 2" d="M38.853 56.235H1.116A1.127 1.127 0 0 1 0 55.1V1.135A1.127 1.127 0 0 1 1.116 0h37.737a1.126 1.126 0 0 1 1.115 1.135V55.1a1.127 1.127 0 0 1-1.115 1.135zM1.116.049A1.077 1.077 0 0 0 .049 1.135V55.1a1.077 1.077 0 0 0 1.067 1.085h37.737a1.077 1.077 0 0 0 1.066-1.085V1.135A1.077 1.077 0 0 0 38.853.049z" style="fill:#ececec"/>
                            </g>
                        </g>
                        <g data-name="Group 7">
                            <path data-name="Clip 6" d="M0 0h39.968v56.235H0z" style="fill:none" transform="translate(47.121 2.695)"/>
                            <g data-name="Group 7" style="clip-path:url(#7d5hub7hlc)" transform="translate(47.121 2.695)">
                                <path data-name="Fill 5" d="M38.853 56.235H1.115A1.127 1.127 0 0 1 0 55.1V1.135A1.126 1.126 0 0 1 1.115 0h37.738a1.126 1.126 0 0 1 1.115 1.135V55.1a1.127 1.127 0 0 1-1.115 1.135zM1.115.049A1.077 1.077 0 0 0 .049 1.135V55.1a1.077 1.077 0 0 0 1.066 1.085h37.738a1.077 1.077 0 0 0 1.066-1.085V1.135A1.077 1.077 0 0 0 38.853.049z" style="fill:#ececec"/>
                            </g>
                        </g>
                        <path data-name="Clip 9" d="M0 74.081h97.715V0H0z" style="fill:none" transform="translate(-2.617 2.695)"/>
                        <g data-name="Mask Group 1" style="clip-path:url(#hsg6v7yitd)" transform="translate(-2.617 2.695)">
                            <path data-name="Fill 8" d="M0 .135h5.081v-.05H0z" transform="translate(82.844 68.217)" style="fill:#ececec"/>
                            <path data-name="Fill 10" d="M0 .135h8.8v-.05H0z" transform="translate(60.779 68.756)" style="fill:#ececec"/>
                            <path data-name="Fill 11" d="M0 .135h11.881v-.05H0z" transform="translate(70.767 66.37)" style="fill:#ececec"/>
                            <path data-name="Fill 12" d="M0 .135h3.759v-.05H0z" transform="translate(10.252 66.704)" style="fill:#ececec"/>
                            <path data-name="Fill 13" d="M0 .135h10.806v-.05H0z" transform="translate(15.751 66.704)" style="fill:#ececec"/>
                            <path data-name="Fill 14" d="M0 .135h14.553v-.05H0z" transform="translate(33.158 67.544)" style="fill:#ececec"/>
                            <path data-name="Fill 15" d="M0 14.588h13.087V0H0z" transform="translate(.093 50.514)" style="fill:#fafafa"/>
                            <path data-name="Fill 16" d="M0 11.388h4.144V0H0z" transform="translate(12.665 53.714)" style="fill:#fafafa"/>
                            <path data-name="Fill 17" d="M0 20.773h4.144V0H0z" transform="translate(15.314 44.329)" style="fill:#fafafa"/>
                            <path data-name="Fill 18" d="M0 37.615h4.144V0H0z" transform="translate(18.068 27.487)" style="fill:#fafafa"/>
                            <path data-name="Fill 19" d="M0 34.687h11.119V0H0z" transform="translate(21.341 30.414)" style="fill:#fafafa"/>
                            <path data-name="Fill 20" d="M0 32.281h116.909V0H0z" transform="translate(-19.413 55.117)" style="fill:#fafafa"/>
                            <path data-name="Fill 21" d="M0 7.794h4.734V0H0z" transform="translate(71.539 57.307)" style="fill:#fafafa"/>
                            <path data-name="Fill 22" d="M0 14.218h4.734V0H0z" transform="translate(68.512 50.884)" style="fill:#fafafa"/>
                            <path data-name="Fill 23" d="M0 25.745h4.734V0H0z" transform="translate(65.366 39.357)" style="fill:#fafafa"/>
                            <path data-name="Fill 24" d="M0 31.45h14.527V0H0z" transform="translate(53.385 33.652)" style="fill:#f0f0f0"/>
                            <path data-name="Fill 25" d="M0 3.827h.692V0H0z" transform="translate(65.837 34.97)" style="fill:#f5f5f5"/>
                            <path data-name="Fill 26" d="M0 3.827h.692V0H0z" transform="translate(65.837 40.955)" style="fill:#f5f5f5"/>
                            <path data-name="Fill 27" d="M0 3.827h.692V0H0z" transform="translate(65.837 46.94)" style="fill:#f5f5f5"/>
                            <path data-name="Fill 28" d="M0 3.827h.692V0H0z" transform="translate(65.837 52.925)" style="fill:#f5f5f5"/>
                            <path data-name="Fill 29" d="M0 3.827h.692V0H0z" transform="translate(65.837 58.91)" style="fill:#f5f5f5"/>
                            <path data-name="Fill 30" d="M0 3.827h.692V0H0z" transform="translate(63.386 34.97)" style="fill:#f5f5f5"/>
                            <path data-name="Fill 31" d="M0 3.827h.692V0H0z" transform="translate(63.386 40.955)" style="fill:#f5f5f5"/>
                            <path data-name="Fill 32" d="M0 3.827h.692V0H0z" transform="translate(63.386 46.94)" style="fill:#f5f5f5"/>
                            <path data-name="Fill 33" d="M0 3.827h.692V0H0z" transform="translate(63.386 52.925)" style="fill:#f5f5f5"/>
                            <path data-name="Fill 34" d="M0 3.827h.692V0H0z" transform="translate(63.386 58.91)" style="fill:#f5f5f5"/>
                            <path data-name="Fill 35" d="M0 3.827h.692V0H0z" transform="translate(60.935 34.97)" style="fill:#f5f5f5"/>
                            <path data-name="Fill 36" d="M0 3.827h.692V0H0z" transform="translate(60.935 40.955)" style="fill:#f5f5f5"/>
                            <path data-name="Fill 37" d="M0 3.827h.692V0H0z" transform="translate(60.935 46.94)" style="fill:#f5f5f5"/>
                            <path data-name="Fill 38" d="M0 3.827h.692V0H0z" transform="translate(60.935 52.925)" style="fill:#f5f5f5"/>
                            <path data-name="Fill 39" d="M0 3.827h.692V0H0z" transform="translate(60.935 58.91)" style="fill:#f5f5f5"/>
                            <path data-name="Fill 40" d="M0 3.827h.692V0H0z" transform="translate(58.483 34.97)" style="fill:#f5f5f5"/>
                            <path data-name="Fill 41" d="M0 3.827h.692V0H0z" transform="translate(58.483 40.955)" style="fill:#f5f5f5"/>
                            <path data-name="Fill 42" d="M0 3.827h.692V0H0z" transform="translate(58.483 46.94)" style="fill:#f5f5f5"/>
                            <path data-name="Fill 43" d="M0 3.827h.692V0H0z" transform="translate(58.483 52.925)" style="fill:#f5f5f5"/>
                            <path data-name="Fill 44" d="M0 3.827h.692V0H0z" transform="translate(58.483 58.91)" style="fill:#f5f5f5"/>
                            <path data-name="Fill 45" d="M0 3.827h.692V0H0z" transform="translate(56.032 34.97)" style="fill:#f5f5f5"/>
                            <path data-name="Fill 46" d="M0 3.827h.692V0H0z" transform="translate(56.032 40.955)" style="fill:#f5f5f5"/>
                            <path data-name="Fill 47" d="M0 3.827h.692V0H0z" transform="translate(56.032 46.94)" style="fill:#f5f5f5"/>
                            <path data-name="Fill 48" d="M0 3.827h.692V0H0z" transform="translate(56.032 52.925)" style="fill:#f5f5f5"/>
                            <path data-name="Fill 49" d="M0 3.827h.692V0H0z" transform="translate(56.032 58.91)" style="fill:#f5f5f5"/>
                            <path data-name="Fill 50" d="M0 0h2.993l1.3 31.45H0z" transform="translate(53.385 33.652)" style="fill:#e1e1e1"/>
                            <path data-name="Fill 51" d="m0 0 8.615 1.659V43.6H0z" transform="translate(46.244 21.5)" style="fill:#f0f0f0"/>
                            <path data-name="Fill 52" d="M0 43.6h6.892V0H0z" transform="translate(39.352 21.5)" style="fill:#e7e7e7"/>
                            <path data-name="Fill 53" d="M0 .223h15.507V0H0z" transform="translate(39.352 25.112)" style="fill:#e1e1e1"/>
                            <path data-name="Fill 54" d="M0 .223h15.507V0H0z" transform="translate(39.352 27.487)" style="fill:#e1e1e1"/>
                            <path data-name="Fill 55" d="M0 .223h15.507V0H0z" transform="translate(39.352 29.861)" style="fill:#e1e1e1"/>
                            <path data-name="Fill 56" d="M0 .223h15.507V0H0z" transform="translate(39.352 32.235)" style="fill:#e1e1e1"/>
                            <path data-name="Fill 57" d="M0 .223h15.507V0H0z" transform="translate(39.352 34.609)" style="fill:#e1e1e1"/>
                            <path data-name="Fill 58" d="M0 .223h15.507V0H0z" transform="translate(39.352 36.983)" style="fill:#e1e1e1"/>
                            <path data-name="Fill 59" d="M0 .223h15.507V0H0z" transform="translate(39.352 39.357)" style="fill:#e1e1e1"/>
                            <path data-name="Fill 60" d="M0 .223h15.507V0H0z" transform="translate(39.352 41.731)" style="fill:#e1e1e1"/>
                            <path data-name="Fill 61" d="M0 .223h15.507V0H0z" transform="translate(39.352 44.106)" style="fill:#e1e1e1"/>
                            <path data-name="Fill 62" d="M0 .223h15.507V0H0z" transform="translate(39.352 46.479)" style="fill:#e1e1e1"/>
                            <path data-name="Fill 63" d="M0 .223h15.507V0H0z" transform="translate(39.352 48.854)" style="fill:#e1e1e1"/>
                            <path data-name="Fill 64" d="M0 .223h15.507V0H0z" transform="translate(39.352 51.228)" style="fill:#e1e1e1"/>
                            <path data-name="Fill 65" d="M0 .223h15.507V0H0z" transform="translate(39.352 53.602)" style="fill:#e1e1e1"/>
                            <path data-name="Fill 66" d="M0 .223h15.507V0H0z" transform="translate(39.352 55.976)" style="fill:#e1e1e1"/>
                            <path data-name="Fill 67" d="M0 .223h15.507V0H0z" transform="translate(39.352 58.35)" style="fill:#e1e1e1"/>
                            <path data-name="Fill 68" d="M0 .223h15.507V0H0z" transform="translate(39.352 60.724)" style="fill:#e1e1e1"/>
                            <path data-name="Fill 69" d="M0 .223h15.507V0H0z" transform="translate(39.352 63.098)" style="fill:#e1e1e1"/>
                            <path data-name="Fill 70" d="M0 52.869h7.206V0H0z" transform="translate(28.377 12.233)" style="fill:#f0f0f0"/>
                            <path data-name="Fill 71" d="M7.206 4.668H0L2.652 0H12.97z" transform="translate(28.377 7.565)" style="fill:#fafafa"/>
                            <path data-name="Fill 72" d="M0 4.668 5.765 0v57.537H0z" transform="translate(35.583 7.565)" style="fill:#ececec"/>
                            <path data-name="Fill 73" d="M0 .282h12.97V0H0z" transform="translate(28.377 14.696)" style="fill:#e1e1e1"/>
                            <path data-name="Fill 74" d="M0 .282h12.97V0H0z" transform="translate(28.377 17.689)" style="fill:#e1e1e1"/>
                            <path data-name="Fill 75" d="M0 .282h12.97V0H0z" transform="translate(28.377 20.681)" style="fill:#e1e1e1"/>
                            <path data-name="Fill 76" d="M0 .282h12.97V0H0z" transform="translate(28.377 23.674)" style="fill:#e1e1e1"/>
                            <path data-name="Fill 77" d="M0 .282h12.97V0H0z" transform="translate(28.377 26.666)" style="fill:#e1e1e1"/>
                            <path data-name="Fill 78" d="M0 .282h12.97V0H0z" transform="translate(28.377 29.659)" style="fill:#e1e1e1"/>
                            <path data-name="Fill 79" d="M0 .282h12.97V0H0z" transform="translate(28.377 32.651)" style="fill:#e1e1e1"/>
                            <path data-name="Fill 80" d="M0 .282h12.97V0H0z" transform="translate(28.377 35.644)" style="fill:#e1e1e1"/>
                            <path data-name="Fill 81" d="M0 .282h12.97V0H0z" transform="translate(28.377 38.637)" style="fill:#e1e1e1"/>
                            <path data-name="Fill 82" d="M0 .282h12.97V0H0z" transform="translate(28.377 41.629)" style="fill:#e1e1e1"/>
                            <path data-name="Fill 83" d="M0 .281h12.97V0H0z" transform="translate(28.377 44.622)" style="fill:#e1e1e1"/>
                            <path data-name="Fill 84" d="M0 .282h12.97V0H0z" transform="translate(28.377 47.614)" style="fill:#e1e1e1"/>
                            <path data-name="Fill 85" d="M0 .282h12.97V0H0z" transform="translate(28.377 50.607)" style="fill:#e1e1e1"/>
                            <path data-name="Fill 86" d="M0 .282h12.97V0H0z" transform="translate(28.377 53.599)" style="fill:#e1e1e1"/>
                            <path data-name="Fill 87" d="M0 .282h12.97V0H0z" transform="translate(28.377 56.592)" style="fill:#e1e1e1"/>
                            <path data-name="Fill 88" d="M0 .282h12.97V0H0z" transform="translate(28.377 59.584)" style="fill:#e1e1e1"/>
                            <path data-name="Fill 89" d="M0 .282h12.97V0H0z" transform="translate(28.377 62.577)" style="fill:#e1e1e1"/>
                            <path data-name="Fill 90" d="M0 27.286h7.866V0H0z" transform="translate(19.259 37.816)" style="fill:#f0f0f0"/>
                            <path data-name="Fill 91" d="M0 4.379h1.262V0H0z" transform="translate(20.807 39.226)" style="fill:#e7e7e7"/>
                            <path data-name="Fill 92" d="M0 4.379h1.262V0H0z" transform="translate(23.904 39.226)" style="fill:#e7e7e7"/>
                            <path data-name="Fill 93" d="M0 4.379h1.262V0H0z" transform="translate(20.807 44.898)" style="fill:#e7e7e7"/>
                            <path data-name="Fill 94" d="M0 4.379h1.262V0H0z" transform="translate(23.904 44.898)" style="fill:#e7e7e7"/>
                            <path data-name="Fill 95" d="M0 4.379h1.262V0H0z" transform="translate(20.807 50.569)" style="fill:#e7e7e7"/>
                            <path data-name="Fill 96" d="M0 4.379h1.262V0H0z" transform="translate(23.904 50.569)" style="fill:#e7e7e7"/>
                            <path data-name="Fill 97" d="M0 4.379h1.262V0H0z" transform="translate(20.807 56.24)" style="fill:#e7e7e7"/>
                            <path data-name="Fill 98" d="M0 4.379h1.262V0H0z" transform="translate(23.904 56.24)" style="fill:#e7e7e7"/>
                            <path data-name="Fill 99" d="M7.866 1.89H0L1.845 0h7.866z" transform="translate(19.259 35.925)" style="fill:#fff"/>
                            <path data-name="Fill 100" d="M0 1.89 1.845 0 3.69 1.89v27.286H0z" transform="translate(27.125 35.925)" style="fill:#e7e7e7"/>
                        </g>
                    </g>
                    <path data-name="Fill 102" d="M75.9 2.181c0 1.2-16.992 2.181-37.952 2.181S0 3.386 0 2.181 16.992 0 37.952 0 75.9.976 75.9 2.181" transform="translate(8.725 72.414)" style="fill:#a7afb8"/>
                    <g data-name="Group 171">
                        <path data-name="Fill 120" d="M34.133 10.907H0V0h30.089L32.9 2.339A3.468 3.468 0 0 1 34.133 5z" transform="translate(40.96 57.367)" style="fill:#007cff"/>
                        <path data-name="Fill 122" d="M75.093 68.274H40.96V57.367h30.089l2.811 2.339a3.468 3.468 0 0 1 1.233 2.661z"/>
                        <path data-name="Fill 124" d="M4.172 7.208C4.172 3.227 5.933 0 8.1 0H3.933C1.761 0 0 3.227 0 7.208s1.761 7.208 3.933 7.208H8.1c-2.172 0-3.933-3.227-3.933-7.208" transform="translate(36.592 60.082)" style="fill:#1a2e35"/>
                        <path data-name="Fill 126" d="M7.865 7.208C7.865 3.227 6.1 0 3.932 0S0 3.227 0 7.208s1.761 7.208 3.932 7.208 3.933-3.227 3.933-7.208" transform="translate(40.764 60.082)" style="fill:#1a2e35"/>
                        <path data-name="Fill 128" d="M5.576 5.621C5.576 2.516 4.328 0 2.788 0S0 2.516 0 5.621s1.248 5.621 2.788 5.621 2.788-2.517 2.788-5.621" transform="translate(42.224 61.67)" style="fill:#fff"/>
                        <path data-name="Fill 130" d="M4.172 7.208C4.172 3.227 5.933 0 8.1 0H3.933C1.761 0 0 3.227 0 7.208s1.761 7.208 3.933 7.208H8.1c-2.172 0-3.933-3.227-3.933-7.208" transform="translate(13.924 60.082)" style="fill:#1a2e35"/>
                        <path data-name="Fill 132" d="M7.865 7.208C7.865 3.227 6.1 0 3.933 0S0 3.227 0 7.208s1.761 7.208 3.933 7.208 3.933-3.227 3.933-7.208" transform="translate(18.096 60.082)" style="fill:#1a2e35"/>
                        <path data-name="Fill 134" d="M4.172 7.208C4.172 3.227 5.932 0 8.1 0H3.933C1.761 0 0 3.227 0 7.208s1.761 7.208 3.933 7.208H8.1c-2.172 0-3.933-3.227-3.933-7.208" transform="translate(63.541 60.082)" style="fill:#1a2e35"/>
                        <path data-name="Fill 136" d="M7.865 7.208C7.865 3.227 6.1 0 3.932 0S0 3.227 0 7.208s1.761 7.208 3.932 7.208 3.933-3.227 3.933-7.208" transform="translate(67.713 60.082)" style="fill:#1a2e35"/>
                        <path data-name="Fill 138" d="M5.576 5.621C5.576 2.516 4.328 0 2.788 0S0 2.516 0 5.621s1.248 5.621 2.788 5.621 2.788-2.517 2.788-5.621" transform="translate(69.174 61.67)" style="fill:#fff"/>
                        <path data-name="Fill 140" d="M23.467 7.152h-5.044l-.282-.289a1.532 1.532 0 0 0-1.1-.465H4.436a1.532 1.532 0 0 0-1.1.465l-.171.176h-.46A2.743 2.743 0 0 1 0 4.263V0h28.616l-2.28 5.074a3.049 3.049 0 0 1-2.869 2.078" transform="translate(12.649 62.15)" style="fill:#007cff"/>
                        <path data-name="Fill 142" d="M23.467 7.152h-5.044l-.282-.289a1.532 1.532 0 0 0-1.1-.465H4.436a1.532 1.532 0 0 0-1.1.465l-.171.176h-.46A2.743 2.743 0 0 1 0 4.263V0h28.616l-2.28 5.074a3.049 3.049 0 0 1-2.869 2.078" transform="translate(12.649 62.15)" style="fill:#65717c"/>
                        <path data-name="Fill 144" d="M.1 2.615A.094.094 0 0 1 .049 2.6a.1.1 0 0 1-.035-.138L1.387.05a.1.1 0 0 1 .134-.036.1.1 0 0 1 .035.138L.183 2.565a.1.1 0 0 1-.085.05" transform="translate(65.805 41.397)" style="fill:#1a2e35"/>
                        <path data-name="Fill 146" d="M28.757 13.926v-2.744c0-1.442-2.045-8.247-4.857-9.522S14.285-.183 10 .052 0 9.473 0 9.473l.622 7.9c.87 0 3.645-.268 4.052 7.549a2.12 2.12 0 0 0 2.091 2.04h15a2.109 2.109 0 0 0 2.073-1.844c.385-2.786 1.417-7.746 3.887-7.746a3.108 3.108 0 0 1 2.975 3.265 12.054 12.054 0 0 0-1.324-5.5z" transform="translate(44.391 42.094)" style="fill:#9ca8b3"/>
                        <path data-name="Fill 148" d="M16.647 0C8.841 0 0 9.421 0 9.421h22.346S28.061.235 32.346 0z" transform="translate(22.045 42.146)" style="fill:#9ca8b3"/>
                        <path data-name="Fill 150" d="M15.584 0C9.009 0 2.114 6.684.1 8.792a.371.371 0 0 0 .258.629h18.03a4.577 4.577 0 0 0 3.721-1.926C24.046 4.787 27.782.166 30.8 0z" transform="translate(23.587 42.146)" style="fill:#fff"/>
                        <path data-name="Fill 152" d="m31.742 0-8.255 6.677L1.276 6.6A8.163 8.163 0 0 0 0 10.583h28.616A4.446 4.446 0 0 1 32.364 7.9c0-2.369-.622-7.9-.622-7.9" transform="translate(12.649 51.567)" style="fill:#9ca8b3"/>
                        <path data-name="Fill 154" d="M38.991 56.276a.1.1 0 0 1-.1-.085.1.1 0 0 1 .082-.114 10.77 10.77 0 0 0 5.358-2.555 1.651 1.651 0 0 0 .285-2.161.1.1 0 0 1 .025-.139.1.1 0 0 1 .136.026 1.855 1.855 0 0 1-.319 2.428 10.962 10.962 0 0 1-5.454 2.6h-.013"/>
                        <path data-name="Fill 156" d="M0 6.6S3.9 1.944 8.121 0h22.345l-8.255 6.677z" transform="translate(13.925 51.567)" style="fill:#9ca8b3"/>
                        <path data-name="Fill 158" d="M0 .436h14.652V0H0z" transform="translate(16.551 58.171)" style="fill:#1a2e35"/>
                        <path data-name="Fill 160" d="m.382 2.522.788-.808a1.3 1.3 0 0 1 .644-.36L7.743.03a1.274 1.274 0 0 1 .63.02l.317.091a1.348 1.348 0 0 1 .628 2.165L8.043 3.8a1.291 1.291 0 0 1-.86.45l-5.76.55a1.285 1.285 0 0 1-1.04-.384 1.359 1.359 0 0 1 0-1.891" transform="translate(30.518 54.775)" style="fill:#fff"/>
                        <path data-name="Fill 161" d="M3.459 1.823 2.808.579a1.088 1.088 0 0 0-.393-.423 1.048 1.048 0 0 0-1.047-.03L.875.39a1.09 1.09 0 0 0-.517.619l-.3.911a1.1 1.1 0 0 0 .831 1.434l1.355.24a1.063 1.063 0 0 0 1.125-.561l.09-.171a1.122 1.122 0 0 0 0-1.039" transform="translate(13.506 55.901)" style="fill:#fff"/>
                        <path data-name="Fill 162" d="M1.1 8.281h20.655A1.146 1.146 0 0 0 22.83 6.8c-.47-1.611-1.376-4.126-2.729-5.409a1.122 1.122 0 0 0-.536-.281A76.714 76.714 0 0 0 10.31.022 9.009 9.009 0 0 0 3.166 2.8a25.58 25.58 0 0 0-2.98 3.733A1.125 1.125 0 0 0 1.1 8.281" transform="translate(47.859 43.554)" style="fill:#fff"/>
                        <path data-name="Fill 163" d="M2.943 1.2a1.355 1.355 0 0 1-1.472 1.2A1.355 1.355 0 0 1 0 1.2 1.355 1.355 0 0 1 1.472 0a1.355 1.355 0 0 1 1.471 1.2" transform="translate(32.653 63.312)" style="fill:#1a2e35"/>
                        <path data-name="Fill 164" d="M1.289 0c.483 0 .719.507.526 1.131A1.522 1.522 0 0 1 .593 2.262c-.483 0-.719-.506-.526-1.131A1.522 1.522 0 0 1 1.289 0" transform="translate(22.45 57.258)" style="fill:#1a2e35"/>
                        <path data-name="Fill 165" d="M.828 1.2c0 .66-.185 1.2-.414 1.2S0 1.856 0 1.2.185 0 .414 0s.414.535.414 1.2" transform="translate(13.008 63.312)" style="fill:#1a2e35"/>
                        <path data-name="Fill 166" d="M0 1.987v-.678A1.286 1.286 0 0 1 1.537.028l2.516.538a1.3 1.3 0 0 1 1.016 1.281v.14A1.293 1.293 0 0 1 3.792 3.3H1.277A1.293 1.293 0 0 1 0 1.987" transform="translate(48.319 49.656)" style="fill:#1a2e35"/>
                        <path data-name="Fill 167" d="M.921.088S.586.053 0 0c2.588 5.434 1.928 8.066 1.928 8.066H3.9C3.921 4.758.921.088.921.088" transform="translate(60.634 43.769)" style="fill:#1a2e35"/>
                        <path data-name="Fill 168" d="M12.6 5.447a1.7 1.7 0 0 1-1.675 1.56H.756c-.742 0-1.011-.848-.474-1.481a29.17 29.17 0 0 1 3.152-3.154A9.178 9.178 0 0 1 9.95.019l.841.063a1.7 1.7 0 0 1 1.518 1.362 13.449 13.449 0 0 1 .292 4" transform="translate(27.142 43.956)" style="opacity:.181;fill:#9ca8b3"/>
                        <path data-name="Fill 169" d="M62.798 67.625a.1.1 0 0 1-.1-.1c0-2.036 1.012-10.43 1.278-11.688a7.877 7.877 0 0 0 0-3.471.1.1 0 0 1 .068-.129.1.1 0 0 1 .122.068 8.085 8.085 0 0 1 0 3.57c-.263 1.262-1.268 9.622-1.268 11.65a.1.1 0 0 1-.1.1"/>
                        <path data-name="Fill 170" d="M62.539 55.936h-2.4a.3.3 0 0 1-.3-.372l.055-.284a.457.457 0 0 1 .426-.372h2.393a.3.3 0 0 1 .3.372l-.05.285a.456.456 0 0 1-.427.372"/>
                    </g>
                </g>
            </g>
            <path data-name="Fill 70" d="M0 23.556h6.98V0H0z" transform="translate(25.481 1.745)" style="fill:#f0f0f0"/>
            <path data-name="Fill 71" d="M7.27 6.98H0L4.824 0h8.263z" transform="translate(25.481)" style="fill:#fafafa"/>
            <path data-name="Fill 72" d="M0 7.727 6.107 0v27.046H0z" transform="translate(32.461)" style="fill:#ececec"/>
        </g>
        <g data-name="Group 8821">
            <g data-name="Ellipse 263" transform="translate(60.999 9.348)" style="fill:#ef5c5c;stroke:#f1f4f8;stroke-width:2px">
                <circle cx="14" cy="14" r="14" style="stroke:none"/>
                <circle cx="14" cy="14" r="13" style="fill:none"/>
            </g>
            <g data-name="Group 8570">
                <path data-name="Path 5780" d="M0 4.875 4.93 0" transform="rotate(-45 61.024 -75.84)" style="stroke-linecap:round;stroke-linejoin:round;stroke-width:2.5px;stroke:#fff;fill:none"/>
                <g data-name="Ellipse 463" transform="translate(74 27.348)" style="stroke-width:.5px;stroke:#fff;fill:#fff">
                    <circle cx="1" cy="1" r="1" style="stroke:none"/>
                    <circle cx="1" cy="1" r="1.25" style="fill:none"/>
                </g>
            </g>
        </g>
    </g>
</svg>
